<?xml version="1.0" standalone="no"?>
<!DOCTYPE svg PUBLIC "-//W3C//DTD SVG 20010904//EN"
 "http://www.w3.org/TR/2001/REC-SVG-20010904/DTD/svg10.dtd">
<svg version="1.0" xmlns="http://www.w3.org/2000/svg"
 width="260.000000pt" height="260.000000pt" viewBox="0 0 260.000000 260.000000"
 preserveAspectRatio="xMidYMid meet">
<metadata>
Created by potrace 1.11, written by Peter Selinger 2001-2013
</metadata>
<g transform="translate(0.000000,260.000000) scale(0.100000,-0.100000)"
fill="#000000" stroke="none">
<path d="M1172 2382 c-121 -44 -226 -149 -259 -261 -23 -81 -14 -193 21 -265
37 -76 110 -147 193 -188 64 -31 73 -33 178 -33 104 0 114 2 177 33 84 41 147
102 190 183 31 60 33 70 33 164 0 94 -2 104 -33 164 -43 81 -110 146 -192 185
-56 26 -79 31 -160 33 -73 3 -107 -1 -148 -15z"/>
<path d="M1942 1750 c-117 -25 -228 -113 -283 -226 -32 -64 -34 -75 -34 -169
0 -92 3 -106 31 -165 58 -121 146 -193 274 -226 142 -36 280 0 390 103 97 91
125 155 125 288 0 93 -2 105 -32 166 -41 82 -121 160 -205 199 -71 32 -190 46
-266 30z"/>
<path d="M484 1740 c-107 -22 -218 -110 -270 -215 -27 -55 -29 -69 -29 -170 0
-99 3 -116 27 -168 35 -74 116 -155 193 -192 54 -27 70 -30 160 -30 89 0 106
4 156 28 73 35 135 90 187 166 99 145 70 334 -73 476 -95 94 -218 131 -351
105z"/>
<path d="M1246 1050 c-73 -13 -168 -64 -216 -116 -23 -25 -55 -75 -71 -110
-80 -175 1 -398 175 -484 210 -104 461 -28 558 168 31 63 38 227 14 299 -34
99 -117 183 -220 222 -63 23 -173 33 -240 21z"/>
</g>
</svg>
